<mxfile host="app.diagrams.net" modified="2024-05-26T20:12:52.510Z" agent="Mozilla/5.0 (Windows NT 10.0; Win64; x64) AppleWebKit/537.36 (KHTML, like Gecko) Chrome/125.0.0.0 Safari/537.36 Edg/125.0.0.0" etag="xkOGfL3EdTjSknqDJPex" version="24.4.8" type="github">
  <diagram name="Page-1" id="v1IhtfFa-YpujJs06mYD">
    <mxGraphModel dx="1429" dy="787" grid="1" gridSize="10" guides="1" tooltips="1" connect="1" arrows="1" fold="1" page="1" pageScale="1" pageWidth="850" pageHeight="1100" math="0" shadow="0">
      <root>
        <mxCell id="0" />
        <mxCell id="1" parent="0" />
        <mxCell id="krgG7L4AZ7WJIM6RxjQF-1" value="1,2" style="ellipse;whiteSpace=wrap;html=1;aspect=fixed;" vertex="1" parent="1">
          <mxGeometry x="385" y="50" width="40" height="40" as="geometry" />
        </mxCell>
        <mxCell id="krgG7L4AZ7WJIM6RxjQF-4" value="" style="endArrow=classic;html=1;rounded=0;exitX=0;exitY=0.5;exitDx=0;exitDy=0;entryX=1;entryY=0;entryDx=0;entryDy=0;" edge="1" parent="1" source="krgG7L4AZ7WJIM6RxjQF-1" target="krgG7L4AZ7WJIM6RxjQF-6">
          <mxGeometry relative="1" as="geometry">
            <mxPoint x="350" y="170" as="sourcePoint" />
            <mxPoint x="260" y="120" as="targetPoint" />
            <Array as="points">
              <mxPoint x="320" y="70" />
            </Array>
          </mxGeometry>
        </mxCell>
        <mxCell id="krgG7L4AZ7WJIM6RxjQF-6" value="3" style="ellipse;whiteSpace=wrap;html=1;aspect=fixed;" vertex="1" parent="1">
          <mxGeometry x="120" y="130" width="40" height="40" as="geometry" />
        </mxCell>
        <mxCell id="krgG7L4AZ7WJIM6RxjQF-7" value="" style="endArrow=classic;html=1;rounded=0;exitX=1;exitY=0.5;exitDx=0;exitDy=0;entryX=0.5;entryY=0;entryDx=0;entryDy=0;" edge="1" parent="1" source="krgG7L4AZ7WJIM6RxjQF-1" target="krgG7L4AZ7WJIM6RxjQF-10">
          <mxGeometry relative="1" as="geometry">
            <mxPoint x="430" y="170" as="sourcePoint" />
            <mxPoint x="530" y="110" as="targetPoint" />
            <Array as="points">
              <mxPoint x="520" y="70" />
            </Array>
          </mxGeometry>
        </mxCell>
        <mxCell id="krgG7L4AZ7WJIM6RxjQF-9" value="Source" style="edgeLabel;resizable=0;html=1;;align=left;verticalAlign=bottom;" connectable="0" vertex="1" parent="krgG7L4AZ7WJIM6RxjQF-7">
          <mxGeometry x="-1" relative="1" as="geometry" />
        </mxCell>
        <mxCell id="krgG7L4AZ7WJIM6RxjQF-10" value="4" style="ellipse;whiteSpace=wrap;html=1;aspect=fixed;" vertex="1" parent="1">
          <mxGeometry x="500" y="110" width="40" height="40" as="geometry" />
        </mxCell>
        <mxCell id="krgG7L4AZ7WJIM6RxjQF-13" value="" style="endArrow=classic;html=1;rounded=0;exitX=0.5;exitY=1;exitDx=0;exitDy=0;" edge="1" parent="1" source="krgG7L4AZ7WJIM6RxjQF-10" target="krgG7L4AZ7WJIM6RxjQF-14">
          <mxGeometry width="50" height="50" relative="1" as="geometry">
            <mxPoint x="480" y="190" as="sourcePoint" />
            <mxPoint x="535" y="200" as="targetPoint" />
          </mxGeometry>
        </mxCell>
        <mxCell id="krgG7L4AZ7WJIM6RxjQF-14" value="5.1" style="ellipse;whiteSpace=wrap;html=1;aspect=fixed;" vertex="1" parent="1">
          <mxGeometry x="500" y="170" width="40" height="40" as="geometry" />
        </mxCell>
        <mxCell id="krgG7L4AZ7WJIM6RxjQF-15" value="5.2" style="ellipse;whiteSpace=wrap;html=1;aspect=fixed;" vertex="1" parent="1">
          <mxGeometry x="500" y="230" width="40" height="40" as="geometry" />
        </mxCell>
        <mxCell id="krgG7L4AZ7WJIM6RxjQF-16" value="" style="endArrow=classic;html=1;rounded=0;exitX=0.5;exitY=1;exitDx=0;exitDy=0;" edge="1" source="krgG7L4AZ7WJIM6RxjQF-15" target="krgG7L4AZ7WJIM6RxjQF-17" parent="1">
          <mxGeometry width="50" height="50" relative="1" as="geometry">
            <mxPoint x="480" y="310" as="sourcePoint" />
            <mxPoint x="535" y="320" as="targetPoint" />
          </mxGeometry>
        </mxCell>
        <mxCell id="krgG7L4AZ7WJIM6RxjQF-17" value="6" style="ellipse;whiteSpace=wrap;html=1;aspect=fixed;" vertex="1" parent="1">
          <mxGeometry x="500" y="290" width="40" height="40" as="geometry" />
        </mxCell>
        <mxCell id="krgG7L4AZ7WJIM6RxjQF-18" value="" style="endArrow=classic;html=1;rounded=0;exitX=0.5;exitY=1;exitDx=0;exitDy=0;entryX=0.5;entryY=0;entryDx=0;entryDy=0;" edge="1" parent="1" source="krgG7L4AZ7WJIM6RxjQF-14" target="krgG7L4AZ7WJIM6RxjQF-15">
          <mxGeometry width="50" height="50" relative="1" as="geometry">
            <mxPoint x="420" y="330" as="sourcePoint" />
            <mxPoint x="470" y="280" as="targetPoint" />
          </mxGeometry>
        </mxCell>
        <mxCell id="krgG7L4AZ7WJIM6RxjQF-19" value="" style="endArrow=classic;html=1;rounded=0;exitX=0.5;exitY=1;exitDx=0;exitDy=0;" edge="1" parent="1" target="krgG7L4AZ7WJIM6RxjQF-20">
          <mxGeometry width="50" height="50" relative="1" as="geometry">
            <mxPoint x="520" y="330" as="sourcePoint" />
            <mxPoint x="535" y="380" as="targetPoint" />
          </mxGeometry>
        </mxCell>
        <mxCell id="krgG7L4AZ7WJIM6RxjQF-20" value="7" style="ellipse;whiteSpace=wrap;html=1;aspect=fixed;" vertex="1" parent="1">
          <mxGeometry x="500" y="350" width="40" height="40" as="geometry" />
        </mxCell>
        <mxCell id="krgG7L4AZ7WJIM6RxjQF-21" value="" style="endArrow=classic;html=1;rounded=0;exitX=0;exitY=1;exitDx=0;exitDy=0;" edge="1" parent="1" source="krgG7L4AZ7WJIM6RxjQF-20">
          <mxGeometry width="50" height="50" relative="1" as="geometry">
            <mxPoint x="420" y="370" as="sourcePoint" />
            <mxPoint x="490" y="400" as="targetPoint" />
          </mxGeometry>
        </mxCell>
        <mxCell id="krgG7L4AZ7WJIM6RxjQF-22" value="" style="endArrow=classic;html=1;rounded=0;exitX=1;exitY=1;exitDx=0;exitDy=0;entryX=0;entryY=0;entryDx=0;entryDy=0;" edge="1" parent="1" source="krgG7L4AZ7WJIM6RxjQF-20" target="krgG7L4AZ7WJIM6RxjQF-24">
          <mxGeometry width="50" height="50" relative="1" as="geometry">
            <mxPoint x="420" y="370" as="sourcePoint" />
            <mxPoint x="550" y="400" as="targetPoint" />
          </mxGeometry>
        </mxCell>
        <mxCell id="krgG7L4AZ7WJIM6RxjQF-23" value="8" style="ellipse;whiteSpace=wrap;html=1;aspect=fixed;" vertex="1" parent="1">
          <mxGeometry x="460" y="400" width="40" height="40" as="geometry" />
        </mxCell>
        <mxCell id="krgG7L4AZ7WJIM6RxjQF-26" value="" style="edgeStyle=orthogonalEdgeStyle;rounded=0;orthogonalLoop=1;jettySize=auto;html=1;exitX=1;exitY=0.5;exitDx=0;exitDy=0;entryX=0;entryY=0.5;entryDx=0;entryDy=0;" edge="1" parent="1" source="krgG7L4AZ7WJIM6RxjQF-23" target="krgG7L4AZ7WJIM6RxjQF-24">
          <mxGeometry relative="1" as="geometry">
            <mxPoint x="520" y="460" as="targetPoint" />
          </mxGeometry>
        </mxCell>
        <mxCell id="krgG7L4AZ7WJIM6RxjQF-24" value="9" style="ellipse;whiteSpace=wrap;html=1;aspect=fixed;" vertex="1" parent="1">
          <mxGeometry x="570" y="400" width="40" height="40" as="geometry" />
        </mxCell>
        <mxCell id="krgG7L4AZ7WJIM6RxjQF-27" value="10" style="ellipse;whiteSpace=wrap;html=1;aspect=fixed;" vertex="1" parent="1">
          <mxGeometry x="500" y="460" width="40" height="40" as="geometry" />
        </mxCell>
        <mxCell id="krgG7L4AZ7WJIM6RxjQF-28" value="" style="endArrow=classic;html=1;rounded=0;entryX=1;entryY=0;entryDx=0;entryDy=0;exitX=0.5;exitY=1;exitDx=0;exitDy=0;" edge="1" parent="1" source="krgG7L4AZ7WJIM6RxjQF-24" target="krgG7L4AZ7WJIM6RxjQF-27">
          <mxGeometry width="50" height="50" relative="1" as="geometry">
            <mxPoint x="420" y="470" as="sourcePoint" />
            <mxPoint x="470" y="420" as="targetPoint" />
          </mxGeometry>
        </mxCell>
        <mxCell id="krgG7L4AZ7WJIM6RxjQF-30" value="11" style="ellipse;whiteSpace=wrap;html=1;aspect=fixed;" vertex="1" parent="1">
          <mxGeometry x="450" y="510" width="40" height="40" as="geometry" />
        </mxCell>
        <mxCell id="krgG7L4AZ7WJIM6RxjQF-31" value="12.1" style="ellipse;whiteSpace=wrap;html=1;aspect=fixed;" vertex="1" parent="1">
          <mxGeometry x="400" y="560" width="40" height="40" as="geometry" />
        </mxCell>
        <mxCell id="krgG7L4AZ7WJIM6RxjQF-32" value="" style="endArrow=classic;html=1;rounded=0;entryX=1;entryY=0;entryDx=0;entryDy=0;exitX=0;exitY=1;exitDx=0;exitDy=0;" edge="1" parent="1" source="krgG7L4AZ7WJIM6RxjQF-27" target="krgG7L4AZ7WJIM6RxjQF-30">
          <mxGeometry width="50" height="50" relative="1" as="geometry">
            <mxPoint x="390" y="560" as="sourcePoint" />
            <mxPoint x="440" y="510" as="targetPoint" />
          </mxGeometry>
        </mxCell>
        <mxCell id="krgG7L4AZ7WJIM6RxjQF-33" value="" style="endArrow=classic;html=1;rounded=0;entryX=1;entryY=0;entryDx=0;entryDy=0;exitX=0;exitY=1;exitDx=0;exitDy=0;" edge="1" parent="1" source="krgG7L4AZ7WJIM6RxjQF-30" target="krgG7L4AZ7WJIM6RxjQF-31">
          <mxGeometry width="50" height="50" relative="1" as="geometry">
            <mxPoint x="420" y="590" as="sourcePoint" />
            <mxPoint x="470" y="540" as="targetPoint" />
          </mxGeometry>
        </mxCell>
        <mxCell id="krgG7L4AZ7WJIM6RxjQF-34" value="12.2" style="ellipse;whiteSpace=wrap;html=1;aspect=fixed;" vertex="1" parent="1">
          <mxGeometry x="345" y="610" width="40" height="40" as="geometry" />
        </mxCell>
        <mxCell id="krgG7L4AZ7WJIM6RxjQF-35" value="" style="endArrow=classic;html=1;rounded=0;exitX=0;exitY=1;exitDx=0;exitDy=0;entryX=1;entryY=0;entryDx=0;entryDy=0;" edge="1" parent="1" source="krgG7L4AZ7WJIM6RxjQF-31" target="krgG7L4AZ7WJIM6RxjQF-34">
          <mxGeometry width="50" height="50" relative="1" as="geometry">
            <mxPoint x="390" y="630" as="sourcePoint" />
            <mxPoint x="440" y="580" as="targetPoint" />
          </mxGeometry>
        </mxCell>
        <mxCell id="krgG7L4AZ7WJIM6RxjQF-36" value="13" style="ellipse;whiteSpace=wrap;html=1;aspect=fixed;" vertex="1" parent="1">
          <mxGeometry x="240" y="670" width="40" height="40" as="geometry" />
        </mxCell>
        <mxCell id="krgG7L4AZ7WJIM6RxjQF-37" value="17" style="ellipse;whiteSpace=wrap;html=1;aspect=fixed;" vertex="1" parent="1">
          <mxGeometry x="450" y="670" width="40" height="40" as="geometry" />
        </mxCell>
        <mxCell id="krgG7L4AZ7WJIM6RxjQF-38" value="12.3" style="ellipse;whiteSpace=wrap;html=1;aspect=fixed;" vertex="1" parent="1">
          <mxGeometry x="345" y="670" width="40" height="40" as="geometry" />
        </mxCell>
        <mxCell id="krgG7L4AZ7WJIM6RxjQF-39" value="" style="endArrow=classic;html=1;rounded=0;exitX=0;exitY=1;exitDx=0;exitDy=0;entryX=0.75;entryY=0;entryDx=0;entryDy=0;entryPerimeter=0;" edge="1" parent="1" source="krgG7L4AZ7WJIM6RxjQF-34" target="krgG7L4AZ7WJIM6RxjQF-36">
          <mxGeometry width="50" height="50" relative="1" as="geometry">
            <mxPoint x="390" y="750" as="sourcePoint" />
            <mxPoint x="440" y="700" as="targetPoint" />
          </mxGeometry>
        </mxCell>
        <mxCell id="krgG7L4AZ7WJIM6RxjQF-40" value="" style="endArrow=classic;html=1;rounded=0;exitX=0.5;exitY=0;exitDx=0;exitDy=0;entryX=0.5;entryY=1;entryDx=0;entryDy=0;" edge="1" parent="1" source="krgG7L4AZ7WJIM6RxjQF-38" target="krgG7L4AZ7WJIM6RxjQF-34">
          <mxGeometry width="50" height="50" relative="1" as="geometry">
            <mxPoint x="390" y="750" as="sourcePoint" />
            <mxPoint x="330" y="680" as="targetPoint" />
          </mxGeometry>
        </mxCell>
        <mxCell id="krgG7L4AZ7WJIM6RxjQF-42" value="" style="endArrow=classic;html=1;rounded=0;exitX=1;exitY=1;exitDx=0;exitDy=0;" edge="1" parent="1" source="krgG7L4AZ7WJIM6RxjQF-34" target="krgG7L4AZ7WJIM6RxjQF-37">
          <mxGeometry width="50" height="50" relative="1" as="geometry">
            <mxPoint x="390" y="750" as="sourcePoint" />
            <mxPoint x="440" y="700" as="targetPoint" />
          </mxGeometry>
        </mxCell>
        <mxCell id="krgG7L4AZ7WJIM6RxjQF-43" value="15" style="ellipse;whiteSpace=wrap;html=1;aspect=fixed;" vertex="1" parent="1">
          <mxGeometry x="200" y="770" width="40" height="40" as="geometry" />
        </mxCell>
        <mxCell id="krgG7L4AZ7WJIM6RxjQF-44" value="14" style="ellipse;whiteSpace=wrap;html=1;aspect=fixed;" vertex="1" parent="1">
          <mxGeometry x="240" y="730" width="40" height="40" as="geometry" />
        </mxCell>
        <mxCell id="krgG7L4AZ7WJIM6RxjQF-45" value="16" style="ellipse;whiteSpace=wrap;html=1;aspect=fixed;" vertex="1" parent="1">
          <mxGeometry x="280" y="770" width="40" height="40" as="geometry" />
        </mxCell>
        <mxCell id="krgG7L4AZ7WJIM6RxjQF-46" value="" style="endArrow=classic;html=1;rounded=0;exitX=0.5;exitY=1;exitDx=0;exitDy=0;entryX=0.5;entryY=0;entryDx=0;entryDy=0;" edge="1" parent="1" source="krgG7L4AZ7WJIM6RxjQF-36" target="krgG7L4AZ7WJIM6RxjQF-44">
          <mxGeometry width="50" height="50" relative="1" as="geometry">
            <mxPoint x="390" y="750" as="sourcePoint" />
            <mxPoint x="440" y="700" as="targetPoint" />
          </mxGeometry>
        </mxCell>
        <mxCell id="krgG7L4AZ7WJIM6RxjQF-47" value="" style="endArrow=classic;html=1;rounded=0;exitX=0;exitY=1;exitDx=0;exitDy=0;entryX=1;entryY=0;entryDx=0;entryDy=0;" edge="1" parent="1" source="krgG7L4AZ7WJIM6RxjQF-44" target="krgG7L4AZ7WJIM6RxjQF-43">
          <mxGeometry width="50" height="50" relative="1" as="geometry">
            <mxPoint x="390" y="750" as="sourcePoint" />
            <mxPoint x="440" y="700" as="targetPoint" />
          </mxGeometry>
        </mxCell>
        <mxCell id="krgG7L4AZ7WJIM6RxjQF-48" value="" style="endArrow=classic;html=1;rounded=0;exitX=1;exitY=1;exitDx=0;exitDy=0;entryX=0;entryY=0;entryDx=0;entryDy=0;" edge="1" parent="1" source="krgG7L4AZ7WJIM6RxjQF-44" target="krgG7L4AZ7WJIM6RxjQF-45">
          <mxGeometry width="50" height="50" relative="1" as="geometry">
            <mxPoint x="390" y="750" as="sourcePoint" />
            <mxPoint x="440" y="700" as="targetPoint" />
          </mxGeometry>
        </mxCell>
        <mxCell id="krgG7L4AZ7WJIM6RxjQF-49" value="" style="endArrow=classic;html=1;rounded=0;exitX=1;exitY=0;exitDx=0;exitDy=0;entryX=0.5;entryY=1;entryDx=0;entryDy=0;" edge="1" parent="1" source="krgG7L4AZ7WJIM6RxjQF-45" target="krgG7L4AZ7WJIM6RxjQF-38">
          <mxGeometry width="50" height="50" relative="1" as="geometry">
            <mxPoint x="390" y="750" as="sourcePoint" />
            <mxPoint x="440" y="700" as="targetPoint" />
          </mxGeometry>
        </mxCell>
        <mxCell id="krgG7L4AZ7WJIM6RxjQF-50" value="18" style="ellipse;whiteSpace=wrap;html=1;aspect=fixed;" vertex="1" parent="1">
          <mxGeometry x="410" y="720" width="40" height="40" as="geometry" />
        </mxCell>
        <mxCell id="krgG7L4AZ7WJIM6RxjQF-51" value="19" style="ellipse;whiteSpace=wrap;html=1;aspect=fixed;" vertex="1" parent="1">
          <mxGeometry x="490" y="720" width="40" height="40" as="geometry" />
        </mxCell>
        <mxCell id="krgG7L4AZ7WJIM6RxjQF-53" value="" style="endArrow=classic;html=1;rounded=0;entryX=1;entryY=0;entryDx=0;entryDy=0;exitX=0;exitY=1;exitDx=0;exitDy=0;" edge="1" parent="1" source="krgG7L4AZ7WJIM6RxjQF-37" target="krgG7L4AZ7WJIM6RxjQF-50">
          <mxGeometry width="50" height="50" relative="1" as="geometry">
            <mxPoint x="450" y="760" as="sourcePoint" />
            <mxPoint x="500" y="710" as="targetPoint" />
          </mxGeometry>
        </mxCell>
        <mxCell id="krgG7L4AZ7WJIM6RxjQF-59" value="" style="endArrow=classic;html=1;rounded=0;exitX=1;exitY=1;exitDx=0;exitDy=0;entryX=0;entryY=0;entryDx=0;entryDy=0;" edge="1" parent="1" source="krgG7L4AZ7WJIM6RxjQF-37" target="krgG7L4AZ7WJIM6RxjQF-51">
          <mxGeometry width="50" height="50" relative="1" as="geometry">
            <mxPoint x="450" y="760" as="sourcePoint" />
            <mxPoint x="500" y="710" as="targetPoint" />
          </mxGeometry>
        </mxCell>
        <mxCell id="krgG7L4AZ7WJIM6RxjQF-60" value="21" style="ellipse;whiteSpace=wrap;html=1;aspect=fixed;" vertex="1" parent="1">
          <mxGeometry x="450" y="770" width="40" height="40" as="geometry" />
        </mxCell>
        <mxCell id="krgG7L4AZ7WJIM6RxjQF-61" value="" style="endArrow=classic;html=1;rounded=0;exitX=1;exitY=1;exitDx=0;exitDy=0;entryX=0;entryY=0;entryDx=0;entryDy=0;" edge="1" parent="1" source="krgG7L4AZ7WJIM6RxjQF-50" target="krgG7L4AZ7WJIM6RxjQF-60">
          <mxGeometry width="50" height="50" relative="1" as="geometry">
            <mxPoint x="450" y="760" as="sourcePoint" />
            <mxPoint x="500" y="710" as="targetPoint" />
          </mxGeometry>
        </mxCell>
        <mxCell id="krgG7L4AZ7WJIM6RxjQF-62" value="" style="endArrow=classic;html=1;rounded=0;entryX=1;entryY=0;entryDx=0;entryDy=0;exitX=0;exitY=1;exitDx=0;exitDy=0;" edge="1" parent="1" source="krgG7L4AZ7WJIM6RxjQF-51" target="krgG7L4AZ7WJIM6RxjQF-60">
          <mxGeometry width="50" height="50" relative="1" as="geometry">
            <mxPoint x="500" y="760" as="sourcePoint" />
            <mxPoint x="500" y="710" as="targetPoint" />
          </mxGeometry>
        </mxCell>
        <mxCell id="krgG7L4AZ7WJIM6RxjQF-63" value="22" style="ellipse;whiteSpace=wrap;html=1;aspect=fixed;" vertex="1" parent="1">
          <mxGeometry x="410" y="820" width="40" height="40" as="geometry" />
        </mxCell>
        <mxCell id="krgG7L4AZ7WJIM6RxjQF-64" value="23" style="ellipse;whiteSpace=wrap;html=1;aspect=fixed;" vertex="1" parent="1">
          <mxGeometry x="490" y="820" width="40" height="40" as="geometry" />
        </mxCell>
        <mxCell id="krgG7L4AZ7WJIM6RxjQF-66" value="" style="endArrow=classic;html=1;rounded=0;exitX=0;exitY=1;exitDx=0;exitDy=0;entryX=1;entryY=0;entryDx=0;entryDy=0;" edge="1" parent="1" source="krgG7L4AZ7WJIM6RxjQF-60" target="krgG7L4AZ7WJIM6RxjQF-63">
          <mxGeometry width="50" height="50" relative="1" as="geometry">
            <mxPoint x="450" y="860" as="sourcePoint" />
            <mxPoint x="500" y="810" as="targetPoint" />
          </mxGeometry>
        </mxCell>
        <mxCell id="krgG7L4AZ7WJIM6RxjQF-67" value="" style="endArrow=classic;html=1;rounded=0;exitX=1;exitY=1;exitDx=0;exitDy=0;entryX=0;entryY=0;entryDx=0;entryDy=0;" edge="1" parent="1" source="krgG7L4AZ7WJIM6RxjQF-60" target="krgG7L4AZ7WJIM6RxjQF-64">
          <mxGeometry width="50" height="50" relative="1" as="geometry">
            <mxPoint x="450" y="860" as="sourcePoint" />
            <mxPoint x="500" y="810" as="targetPoint" />
          </mxGeometry>
        </mxCell>
        <mxCell id="krgG7L4AZ7WJIM6RxjQF-68" value="" style="endArrow=classic;html=1;rounded=0;exitX=1;exitY=0.5;exitDx=0;exitDy=0;entryX=0;entryY=0.5;entryDx=0;entryDy=0;" edge="1" parent="1" source="krgG7L4AZ7WJIM6RxjQF-63" target="krgG7L4AZ7WJIM6RxjQF-64">
          <mxGeometry width="50" height="50" relative="1" as="geometry">
            <mxPoint x="450" y="860" as="sourcePoint" />
            <mxPoint x="500" y="810" as="targetPoint" />
          </mxGeometry>
        </mxCell>
        <mxCell id="krgG7L4AZ7WJIM6RxjQF-69" value="27" style="ellipse;whiteSpace=wrap;html=1;aspect=fixed;" vertex="1" parent="1">
          <mxGeometry x="570" y="910" width="40" height="40" as="geometry" />
        </mxCell>
        <mxCell id="krgG7L4AZ7WJIM6RxjQF-70" value="" style="endArrow=classic;html=1;rounded=0;exitX=0.5;exitY=1;exitDx=0;exitDy=0;entryX=0;entryY=0.5;entryDx=0;entryDy=0;" edge="1" parent="1" source="krgG7L4AZ7WJIM6RxjQF-43" target="krgG7L4AZ7WJIM6RxjQF-69">
          <mxGeometry width="50" height="50" relative="1" as="geometry">
            <mxPoint x="430" y="970" as="sourcePoint" />
            <mxPoint x="480" y="920" as="targetPoint" />
            <Array as="points">
              <mxPoint x="220" y="930" />
            </Array>
          </mxGeometry>
        </mxCell>
        <mxCell id="krgG7L4AZ7WJIM6RxjQF-71" value="" style="endArrow=classic;html=1;rounded=0;exitX=0.5;exitY=1;exitDx=0;exitDy=0;entryX=0;entryY=1;entryDx=0;entryDy=0;" edge="1" parent="1" source="krgG7L4AZ7WJIM6RxjQF-6" target="krgG7L4AZ7WJIM6RxjQF-69">
          <mxGeometry width="50" height="50" relative="1" as="geometry">
            <mxPoint x="180" y="440" as="sourcePoint" />
            <mxPoint x="480" y="920" as="targetPoint" />
            <Array as="points">
              <mxPoint x="140" y="970" />
            </Array>
          </mxGeometry>
        </mxCell>
        <mxCell id="krgG7L4AZ7WJIM6RxjQF-73" value="20" style="ellipse;whiteSpace=wrap;html=1;aspect=fixed;" vertex="1" parent="1">
          <mxGeometry x="570" y="630" width="40" height="40" as="geometry" />
        </mxCell>
        <mxCell id="krgG7L4AZ7WJIM6RxjQF-74" value="" style="endArrow=classic;html=1;rounded=0;exitX=0.5;exitY=1;exitDx=0;exitDy=0;entryX=0.5;entryY=0;entryDx=0;entryDy=0;" edge="1" parent="1" source="krgG7L4AZ7WJIM6RxjQF-24" target="krgG7L4AZ7WJIM6RxjQF-73">
          <mxGeometry width="50" height="50" relative="1" as="geometry">
            <mxPoint x="390" y="650" as="sourcePoint" />
            <mxPoint x="440" y="600" as="targetPoint" />
          </mxGeometry>
        </mxCell>
        <mxCell id="krgG7L4AZ7WJIM6RxjQF-75" value="" style="endArrow=classic;html=1;rounded=0;exitX=0.5;exitY=1;exitDx=0;exitDy=0;entryX=0.5;entryY=0;entryDx=0;entryDy=0;" edge="1" parent="1" source="krgG7L4AZ7WJIM6RxjQF-73" target="krgG7L4AZ7WJIM6RxjQF-69">
          <mxGeometry width="50" height="50" relative="1" as="geometry">
            <mxPoint x="390" y="820" as="sourcePoint" />
            <mxPoint x="440" y="770" as="targetPoint" />
          </mxGeometry>
        </mxCell>
        <mxCell id="krgG7L4AZ7WJIM6RxjQF-76" value="5.3" style="ellipse;whiteSpace=wrap;html=1;aspect=fixed;" vertex="1" parent="1">
          <mxGeometry x="640" y="560" width="40" height="40" as="geometry" />
        </mxCell>
        <mxCell id="krgG7L4AZ7WJIM6RxjQF-77" value="" style="endArrow=classic;html=1;rounded=0;exitX=0.5;exitY=0;exitDx=0;exitDy=0;entryX=1;entryY=0.5;entryDx=0;entryDy=0;" edge="1" parent="1" source="krgG7L4AZ7WJIM6RxjQF-76" target="krgG7L4AZ7WJIM6RxjQF-15">
          <mxGeometry width="50" height="50" relative="1" as="geometry">
            <mxPoint x="390" y="550" as="sourcePoint" />
            <mxPoint x="710" y="250" as="targetPoint" />
            <Array as="points">
              <mxPoint x="660" y="250" />
            </Array>
          </mxGeometry>
        </mxCell>
        <mxCell id="krgG7L4AZ7WJIM6RxjQF-78" value="" style="endArrow=classic;html=1;rounded=0;exitX=1;exitY=0.5;exitDx=0;exitDy=0;entryX=0.5;entryY=1;entryDx=0;entryDy=0;" edge="1" parent="1" source="krgG7L4AZ7WJIM6RxjQF-64" target="krgG7L4AZ7WJIM6RxjQF-76">
          <mxGeometry width="50" height="50" relative="1" as="geometry">
            <mxPoint x="390" y="780" as="sourcePoint" />
            <mxPoint x="440" y="730" as="targetPoint" />
            <Array as="points">
              <mxPoint x="660" y="840" />
            </Array>
          </mxGeometry>
        </mxCell>
        <mxCell id="krgG7L4AZ7WJIM6RxjQF-80" value="" style="endArrow=classic;html=1;rounded=0;exitX=1;exitY=0.5;exitDx=0;exitDy=0;entryX=0;entryY=0;entryDx=0;entryDy=0;" edge="1" parent="1" source="krgG7L4AZ7WJIM6RxjQF-15" target="krgG7L4AZ7WJIM6RxjQF-81">
          <mxGeometry width="50" height="50" relative="1" as="geometry">
            <mxPoint x="390" y="560" as="sourcePoint" />
            <mxPoint x="760" y="560" as="targetPoint" />
          </mxGeometry>
        </mxCell>
        <mxCell id="krgG7L4AZ7WJIM6RxjQF-81" value="24" style="ellipse;whiteSpace=wrap;html=1;aspect=fixed;" vertex="1" parent="1">
          <mxGeometry x="750" y="560" width="40" height="40" as="geometry" />
        </mxCell>
        <mxCell id="krgG7L4AZ7WJIM6RxjQF-82" value="25" style="ellipse;whiteSpace=wrap;html=1;aspect=fixed;" vertex="1" parent="1">
          <mxGeometry x="710" y="720" width="40" height="40" as="geometry" />
        </mxCell>
        <mxCell id="krgG7L4AZ7WJIM6RxjQF-83" value="16" style="ellipse;whiteSpace=wrap;html=1;aspect=fixed;" vertex="1" parent="1">
          <mxGeometry x="790" y="720" width="40" height="40" as="geometry" />
        </mxCell>
        <mxCell id="krgG7L4AZ7WJIM6RxjQF-84" value="" style="endArrow=classic;html=1;rounded=0;exitX=0;exitY=1;exitDx=0;exitDy=0;entryX=0.5;entryY=0;entryDx=0;entryDy=0;" edge="1" parent="1" source="krgG7L4AZ7WJIM6RxjQF-81" target="krgG7L4AZ7WJIM6RxjQF-82">
          <mxGeometry width="50" height="50" relative="1" as="geometry">
            <mxPoint x="390" y="790" as="sourcePoint" />
            <mxPoint x="440" y="740" as="targetPoint" />
          </mxGeometry>
        </mxCell>
        <mxCell id="krgG7L4AZ7WJIM6RxjQF-85" value="" style="endArrow=classic;html=1;rounded=0;entryX=0.5;entryY=0;entryDx=0;entryDy=0;exitX=1;exitY=1;exitDx=0;exitDy=0;" edge="1" parent="1" source="krgG7L4AZ7WJIM6RxjQF-81" target="krgG7L4AZ7WJIM6RxjQF-83">
          <mxGeometry width="50" height="50" relative="1" as="geometry">
            <mxPoint x="390" y="790" as="sourcePoint" />
            <mxPoint x="440" y="740" as="targetPoint" />
          </mxGeometry>
        </mxCell>
        <mxCell id="krgG7L4AZ7WJIM6RxjQF-86" value="" style="endArrow=classic;html=1;rounded=0;exitX=0.5;exitY=1;exitDx=0;exitDy=0;entryX=1;entryY=0.5;entryDx=0;entryDy=0;" edge="1" parent="1" source="krgG7L4AZ7WJIM6RxjQF-82" target="krgG7L4AZ7WJIM6RxjQF-69">
          <mxGeometry width="50" height="50" relative="1" as="geometry">
            <mxPoint x="390" y="790" as="sourcePoint" />
            <mxPoint x="440" y="740" as="targetPoint" />
          </mxGeometry>
        </mxCell>
        <mxCell id="krgG7L4AZ7WJIM6RxjQF-87" value="" style="endArrow=classic;html=1;rounded=0;exitX=0.5;exitY=1;exitDx=0;exitDy=0;entryX=1;entryY=1;entryDx=0;entryDy=0;" edge="1" parent="1" source="krgG7L4AZ7WJIM6RxjQF-83" target="krgG7L4AZ7WJIM6RxjQF-69">
          <mxGeometry width="50" height="50" relative="1" as="geometry">
            <mxPoint x="390" y="790" as="sourcePoint" />
            <mxPoint x="440" y="740" as="targetPoint" />
            <Array as="points">
              <mxPoint x="810" y="944" />
            </Array>
          </mxGeometry>
        </mxCell>
      </root>
    </mxGraphModel>
  </diagram>
</mxfile>
